# Rhino

mtllib cubo.mtl
usemtl diffuse_Black
v 0 0 0
v 0 135.6023712158203 0
v 182.0499877929688 0 0
v 182.0499877929688 135.6023712158203 0
v 182.0499877929688 0 0
v 182.0499877929688 135.6023712158203 0
v 182.0499877929688 0 -163.2745361328125
v 182.0499877929688 135.6023712158203 -163.2745361328125
v 182.0499877929688 0 -163.2745361328125
v 182.0499877929688 135.6023712158203 -163.2745361328125
v 0 0 -163.2745361328125
v 0 135.6023712158203 -163.2745361328125
v 0 0 -163.2745361328125
v 0 135.6023712158203 -163.2745361328125
v 0 0 0
v 0 135.6023712158203 0
v 0 0 0
v 182.0499877929688 0 0
v 182.0499877929688 0 -163.2745361328125
v 0 0 -163.2745361328125
v 0 135.6023712158203 0
v 182.0499877929688 135.6023712158203 0
v 182.0499877929688 135.6023712158203 -163.2745361328125
v 0 135.6023712158203 -163.2745361328125
vt 0 0
vt 0 0.64670729637146
vt 0.2635926008224487 0
vt 0.2635926008224487 0.64670729637146
vt 0.2635926008224487 0
vt 0.2635926008224487 0.64670729637146
vt 0.5 0
vt 0.5 0.64670729637146
vt 0.5 0
vt 0.5 0.64670729637146
vt 0.7635926008224487 0
vt 0.7635926008224487 0.64670729637146
vt 0.7635926008224487 0
vt 0.7635926008224487 0.64670729637146
vt 1 0
vt 1 0.64670729637146
vt 0 1
vt 0.2635926008224487 1
vt 0.2635926008224487 0.6467079520225525
vt 0 0.6467079520225525
vt 0.7364073991775513 0.6467079520225525
vt 1 0.6467079520225525
vt 1 1
vt 0.7364073991775513 1
vn 0 0 1
vn 0 0 1
vn 0 0 1
vn 0 0 1
vn 1 0 0
vn 1 0 0
vn 1 0 0
vn 1 0 0
vn 0 0 -1
vn 0 0 -1
vn 0 0 -1
vn 0 0 -1
vn -1 0 0
vn -1 0 0
vn -1 0 0
vn -1 0 0
vn 0 -1 0
vn 0 -1 0
vn 0 -1 0
vn 0 -1 0
vn 0 1 0
vn 0 1 0
vn 0 1 0
vn 0 1 0
f 1/1/1 3/3/3 4/4/4 2/2/2
f 5/5/5 7/7/7 8/8/8 6/6/6
f 9/9/9 11/11/11 12/12/12 10/10/10
f 13/13/13 15/15/15 16/16/16 14/14/14
f 18/18/18 17/17/17 20/20/20
f 20/20/20 19/19/19 18/18/18
f 22/22/22 24/24/24 21/21/21
f 24/24/24 22/22/22 23/23/23
